<svg width="40" height="40" viewBox="0 0 40 40" fill="none" xmlns="http://www.w3.org/2000/svg">
<rect width="40" height="40" rx="20" fill="white"/>
<path d="M28.0025 11H11.9975C11.7336 11.002 11.481 11.1077 11.2943 11.2943C11.1077 11.481 11.002 11.7336 11 11.9975V28.0025C11.002 28.2664 11.1077 28.519 11.2943 28.7057C11.481 28.8923 11.7336 28.998 11.9975 29H20.615V22.04H18.275V19.3175H20.615V17.315C20.615 14.99 22.0325 13.7225 24.1175 13.7225C24.815 13.7225 25.5125 13.7225 26.21 13.8275V16.25H24.7775C23.645 16.25 23.4275 16.79 23.4275 17.5775V19.31H26.1275L25.775 22.0325H23.4275V29H28.0025C28.2664 28.998 28.519 28.8923 28.7057 28.7057C28.8923 28.519 28.998 28.2664 29 28.0025V11.9975C28.998 11.7336 28.8923 11.481 28.7057 11.2943C28.519 11.1077 28.2664 11.002 28.0025 11Z" fill="#635BFF"/>
</svg>
