<svg width="145" height="30" viewBox="0 0 145 30" fill="none" xmlns="http://www.w3.org/2000/svg">
<path d="M7.979 12.4888C8.04799 12.5553 8.10306 12.6348 8.14099 12.7228C8.17891 12.8107 8.19895 12.9054 8.19991 13.0012C8.20088 13.097 8.18276 13.192 8.14661 13.2807C8.11046 13.3694 8.057 13.45 7.98936 13.5179C7.92172 13.5857 7.84125 13.6394 7.75264 13.6758C7.66404 13.7122 7.56907 13.7306 7.47328 13.7299C7.37749 13.7292 7.2828 13.7094 7.19472 13.6717C7.10665 13.634 7.02697 13.5792 6.96032 13.5104C6.89324 13.4434 6.84002 13.3639 6.80368 13.2763C6.76734 13.1888 6.7486 13.0949 6.74854 13.0001C6.7484 12.8087 6.82432 12.625 6.9596 12.4896C7.09487 12.3541 7.27842 12.2779 7.46987 12.2778C7.66131 12.2776 7.84497 12.3536 7.98044 12.4888H7.979ZM10.0207 10.4486C10.0896 10.5151 10.1445 10.5948 10.1824 10.6828C10.2202 10.7708 10.2401 10.8655 10.2409 10.9612C10.2417 11.057 10.2235 11.152 10.1872 11.2407C10.1509 11.3294 10.0974 11.4099 10.0296 11.4777C9.96188 11.5454 9.88133 11.599 9.79267 11.6352C9.70401 11.6715 9.60901 11.6898 9.51321 11.6889C9.41742 11.6881 9.32275 11.6682 9.23474 11.6304C9.14672 11.5926 9.06711 11.5376 9.00056 11.4687C8.86914 11.3326 8.79642 11.1504 8.79807 10.9612C8.79971 10.7721 8.87559 10.5911 9.00935 10.4574C9.14311 10.3236 9.32405 10.2477 9.51321 10.2461C9.70237 10.2445 9.88461 10.3172 10.0207 10.4486ZM12.0624 8.40835C12.1293 8.47543 12.1825 8.55504 12.2187 8.64265C12.2549 8.73025 12.2735 8.82413 12.2734 8.91892C12.2734 9.01372 12.2546 9.10757 12.2183 9.19512C12.1819 9.28268 12.1287 9.36221 12.0616 9.4292C11.9946 9.49618 11.9149 9.54929 11.8273 9.58551C11.7397 9.62172 11.6459 9.64033 11.5511 9.64026C11.4563 9.64019 11.3624 9.62145 11.2749 9.58512C11.1873 9.54878 11.1078 9.49555 11.0408 9.42847C10.9094 9.29241 10.8367 9.11017 10.8383 8.92101C10.84 8.73185 10.9158 8.5509 11.0496 8.41714C11.1833 8.28338 11.3643 8.20751 11.5535 8.20586C11.7426 8.20422 11.9249 8.27694 12.0609 8.40835H12.0624ZM12.0624 16.5708C12.1293 16.6378 12.1825 16.7174 12.2187 16.805C12.2549 16.8927 12.2735 16.9865 12.2734 17.0813C12.2734 17.1761 12.2546 17.27 12.2183 17.3575C12.1819 17.4451 12.1287 17.5246 12.0616 17.5916C11.9946 17.6586 11.9149 17.7117 11.8273 17.7479C11.7397 17.7841 11.6459 17.8027 11.5511 17.8027C11.4563 17.8026 11.3624 17.7839 11.2749 17.7475C11.1873 17.7112 11.1078 17.658 11.0408 17.5909C10.9094 17.4548 10.8367 17.2726 10.8383 17.0834C10.84 16.8942 10.9158 16.7133 11.0496 16.5795C11.1833 16.4458 11.3643 16.3699 11.5535 16.3683C11.7426 16.3666 11.9249 16.4393 12.0609 16.5708H12.0624ZM14.1012 14.5291C14.2366 14.6643 14.3128 14.8479 14.3129 15.0393C14.3131 15.2308 14.2372 15.4144 14.1019 15.5499C13.9666 15.6854 13.7831 15.7616 13.5916 15.7617C13.4002 15.7618 13.2165 15.6859 13.081 15.5506C12.9496 15.4146 12.8769 15.2323 12.8785 15.0432C12.8802 14.854 12.9561 14.6731 13.0898 14.5393C13.2236 14.4055 13.4045 14.3297 13.5937 14.328C13.7829 14.3264 13.9651 14.3991 14.1012 14.5305V14.5291ZM16.1414 12.4888C16.2104 12.5553 16.2655 12.6348 16.3034 12.7228C16.3413 12.8107 16.3613 12.9054 16.3623 13.0012C16.3633 13.097 16.3452 13.192 16.309 13.2807C16.2729 13.3694 16.2194 13.45 16.1518 13.5179C16.0841 13.5857 16.0037 13.6394 15.915 13.6758C15.8264 13.7122 15.7315 13.7306 15.6357 13.7299C15.5399 13.7292 15.4452 13.7094 15.3571 13.6717C15.2691 13.634 15.1894 13.5792 15.1227 13.5104C15.0556 13.4434 15.0024 13.3639 14.9661 13.2763C14.9297 13.1888 14.911 13.0949 14.9109 13.0001C14.9108 12.8087 14.9867 12.625 15.122 12.4896C15.2573 12.3541 15.4408 12.2779 15.6323 12.2778C15.8237 12.2776 16.0074 12.3536 16.1428 12.4888H16.1414ZM10.0207 14.5291C10.0878 14.5961 10.141 14.6756 10.1773 14.7631C10.2137 14.8507 10.2324 14.9445 10.2325 15.0393C10.2325 15.1341 10.2139 15.228 10.1777 15.3156C10.1415 15.4032 10.0884 15.4828 10.0214 15.5499C9.95442 15.617 9.87488 15.6702 9.78733 15.7066C9.69977 15.7429 9.60592 15.7616 9.51113 15.7617C9.41633 15.7618 9.32246 15.7432 9.23485 15.7069C9.14725 15.6707 9.06764 15.6176 9.00056 15.5506C8.86914 15.4146 8.79642 15.2323 8.79807 15.0432C8.79971 14.854 8.87559 14.6731 9.00935 14.5393C9.14311 14.4055 9.32405 14.3297 9.51321 14.328C9.70237 14.3264 9.88461 14.3991 10.0207 14.5305V14.5291ZM12.0624 12.4888C12.1294 12.5559 12.1826 12.6355 12.2189 12.7232C12.2552 12.8108 12.2739 12.9048 12.2739 12.9996C12.2739 13.0945 12.2552 13.1884 12.2189 13.276C12.1826 13.3637 12.1294 13.4433 12.0624 13.5104C11.9953 13.5775 11.9157 13.6307 11.828 13.667C11.7404 13.7033 11.6464 13.722 11.5516 13.722C11.4567 13.722 11.3628 13.7033 11.2751 13.667C11.1875 13.6307 11.1079 13.5775 11.0408 13.5104C10.9737 13.4434 10.9205 13.3639 10.8842 13.2763C10.8478 13.1888 10.8291 13.0949 10.829 13.0001C10.8289 12.8087 10.9048 12.625 11.0401 12.4896C11.1754 12.3541 11.3589 12.2779 11.5503 12.2778C11.7418 12.2776 11.9254 12.3536 12.0609 12.4888H12.0624ZM14.1012 10.4486C14.1701 10.5151 14.225 10.5948 14.2628 10.6828C14.3006 10.7708 14.3205 10.8655 14.3214 10.9612C14.3222 11.057 14.304 11.152 14.2677 11.2407C14.2314 11.3294 14.1778 11.4099 14.1101 11.4777C14.0424 11.5454 13.9618 11.599 13.8731 11.6352C13.7845 11.6715 13.6895 11.6898 13.5937 11.6889C13.4979 11.6881 13.4032 11.6682 13.3152 11.6304C13.2272 11.5926 13.1476 11.5376 13.081 11.4687C12.9496 11.3326 12.8769 11.1504 12.8785 10.9612C12.8802 10.7721 12.9561 10.5911 13.0898 10.4574C13.2236 10.3236 13.4045 10.2477 13.5937 10.2461C13.7829 10.2445 13.9651 10.3172 14.1012 10.4486Z" fill="white"/>
<path d="M20.3315 4.16771C19.5198 3.35621 18.419 2.90034 17.2711 2.90034C16.1233 2.90034 15.0225 3.35621 14.2108 4.16771L12.5572 5.8227L18.7054 11.9694L20.3315 10.2884C21.143 9.47668 21.5989 8.37587 21.5989 7.22807C21.5989 6.08027 21.143 4.97945 20.3315 4.16771ZM17.6939 12.9996L11.5386 6.84426L5.35004 13.0443L11.4996 19.1939L17.6939 12.9996ZM10.4708 20.2054L4.32847 14.063L2.66771 15.7122C1.89852 16.5321 1.47847 17.6191 1.49646 18.7432C1.51445 19.8673 1.96906 20.9402 2.7641 21.7351C3.55914 22.5299 4.63223 22.9843 5.75632 23.002C6.8804 23.0198 7.96728 22.5995 8.78699 21.8301L8.79564 21.8214L10.4694 20.2039L10.4708 20.2054ZM3.82202 12.5321L13.1892 3.14759C14.275 2.08452 15.7362 1.49252 17.2557 1.50007C18.7752 1.50762 20.2304 2.11411 21.3056 3.18792C22.3807 4.26173 22.989 5.71621 22.9984 7.23572C23.0079 8.75522 22.4177 10.2171 21.356 11.3042L19.2248 13.5104L12.0017 20.7335L9.80422 22.8574C8.71715 23.9191 7.25523 24.5093 5.73572 24.4999C4.21621 24.4905 2.76173 23.8822 1.68792 22.807C0.614111 21.7319 0.00762094 20.2766 7.13313e-05 18.7571C-0.00747828 17.2376 0.584522 15.7764 1.64759 14.6907L1.64904 14.6878L3.82058 12.535L3.82202 12.5321Z" fill="white"/>
<path d="M2.66771 4.16711C1.85622 4.97885 1.40034 6.07966 1.40034 7.22747C1.40034 8.37527 1.85622 9.47608 2.66771 10.2878L4.3227 11.9414L10.4694 5.79324L8.78843 4.16711C7.97669 3.35561 6.87588 2.89974 5.72807 2.89974C4.58027 2.89974 3.47946 3.35561 2.66771 4.16711ZM11.4996 6.8047L5.34426 12.96L11.5443 19.1486L17.6939 12.999L11.4996 6.8047ZM18.7054 14.0278L12.563 20.1701L14.2122 21.8309C15.0321 22.6001 16.1191 23.0201 17.2432 23.0022C18.3673 22.9842 19.4402 22.5296 20.2351 21.7345C21.03 20.9395 21.4843 19.8664 21.502 18.7423C21.5198 17.6182 21.0995 16.5313 20.3301 15.7116L20.3214 15.703L18.7039 14.0292L18.7054 14.0278ZM11.0321 20.6766L1.64759 11.3094C0.584521 10.2236 -0.00747897 8.76244 7.05771e-05 7.24292C0.00762012 5.72341 0.61411 4.26817 1.68792 3.19303C2.76173 2.11789 4.21621 1.5096 5.73572 1.50017C7.25523 1.49074 8.71715 2.08093 9.80422 3.14266L12.0104 5.2738L19.2335 12.4969L21.3574 14.6944C22.4191 15.7815 23.0093 17.2434 22.9999 18.7629C22.9905 20.2824 22.3822 21.7369 21.307 22.8107C20.2319 23.8845 18.7767 24.491 17.2571 24.4985C15.7376 24.5061 14.2764 23.9141 13.1907 22.851L13.1878 22.8496L11.035 20.678L11.0321 20.6766Z" fill="white"/>
<path d="M10.989 16.5196C11.0555 16.4506 11.135 16.3956 11.223 16.3577C11.311 16.3197 11.4056 16.2997 11.5014 16.2987C11.5972 16.2978 11.6922 16.3159 11.7809 16.352C11.8696 16.3882 11.9502 16.4416 12.0181 16.5093C12.0859 16.5769 12.1396 16.6574 12.176 16.746C12.2124 16.8346 12.2308 16.9296 12.2301 17.0254C12.2294 17.1212 12.2096 17.2158 12.1719 17.3039C12.1343 17.392 12.0794 17.4717 12.0106 17.5383C11.9436 17.6054 11.8641 17.6586 11.7765 17.695C11.689 17.7313 11.5951 17.75 11.5003 17.7501C11.3089 17.7502 11.1252 17.6743 10.9898 17.539C10.8543 17.4038 10.7781 17.2202 10.778 17.0288C10.7779 16.8373 10.8538 16.6537 10.989 16.5182L10.989 16.5196ZM8.94881 14.478C9.01536 14.4091 9.09497 14.3541 9.18299 14.3163C9.27101 14.2785 9.36567 14.2586 9.46147 14.2577C9.55726 14.2569 9.65226 14.2752 9.74092 14.3114C9.82958 14.3477 9.91013 14.4013 9.97787 14.469C10.0456 14.5368 10.0992 14.6173 10.1355 14.706C10.1717 14.7946 10.19 14.8896 10.1892 14.9854C10.1883 15.0812 10.1684 15.1759 10.1306 15.2639C10.0928 15.3519 10.0378 15.4315 9.96893 15.4981C9.83287 15.6295 9.65063 15.7022 9.46147 15.7006C9.27231 15.6989 9.09136 15.6231 8.9576 15.4893C8.82384 15.3555 8.74796 15.1746 8.74632 14.9854C8.74468 14.7963 8.81739 14.614 8.94881 14.478ZM6.90857 12.4363C6.97565 12.3693 7.05526 12.3162 7.14287 12.28C7.23047 12.2438 7.32435 12.2251 7.41914 12.2252C7.51394 12.2253 7.60779 12.244 7.69534 12.2804C7.78289 12.3167 7.86243 12.3699 7.92941 12.437C7.99639 12.5041 8.04951 12.5837 8.08572 12.6713C8.12194 12.7589 8.14054 12.8528 8.14048 12.9476C8.14041 13.0424 8.12167 13.1362 8.08533 13.2238C8.04899 13.3113 7.99577 13.3909 7.92869 13.4578C7.79263 13.5893 7.61039 13.662 7.42123 13.6603C7.23207 13.6587 7.05112 13.5828 6.91736 13.4491C6.7836 13.3153 6.70773 13.1343 6.70608 12.9452C6.70444 12.756 6.77716 12.5738 6.90857 12.4377L6.90857 12.4363ZM15.071 12.4363C15.138 12.3693 15.2177 12.3162 15.3053 12.28C15.3929 12.2438 15.4867 12.2251 15.5815 12.2252C15.6763 12.2253 15.7702 12.244 15.8577 12.2804C15.9453 12.3167 16.0248 12.3699 16.0918 12.437C16.1588 12.5041 16.2119 12.5837 16.2481 12.6713C16.2843 12.7589 16.3029 12.8528 16.3029 12.9476C16.3028 13.0424 16.2841 13.1362 16.2477 13.2238C16.2114 13.3113 16.1582 13.3909 16.0911 13.4578C15.955 13.5893 15.7728 13.662 15.5836 13.6603C15.3945 13.6587 15.2135 13.5828 15.0798 13.4491C14.946 13.3153 14.8701 13.1343 14.8685 12.9452C14.8668 12.756 14.9396 12.5738 15.071 12.4377L15.071 12.4363ZM13.0293 10.3975C13.1646 10.262 13.3481 10.1858 13.5396 10.1857C13.731 10.1856 13.9147 10.2615 14.0501 10.3968C14.1856 10.532 14.2618 10.7156 14.2619 10.907C14.262 11.0985 14.1861 11.2821 14.0509 11.4176C13.9148 11.549 13.7325 11.6217 13.5434 11.6201C13.3542 11.6184 13.1733 11.5426 13.0395 11.4088C12.9058 11.2751 12.8299 11.0941 12.8282 10.9049C12.8266 10.7158 12.8993 10.5335 13.0307 10.3975L13.0293 10.3975ZM10.989 8.35724C11.0555 8.28825 11.135 8.23318 11.223 8.19526C11.311 8.15733 11.4056 8.13729 11.5014 8.13633C11.5972 8.13536 11.6922 8.15348 11.7809 8.18963C11.8696 8.22578 11.9502 8.27924 12.0181 8.34687C12.0859 8.41452 12.1396 8.49499 12.176 8.58359C12.2124 8.6722 12.2308 8.76717 12.2301 8.86296C12.2294 8.95875 12.2096 9.05344 12.1719 9.14151C12.1343 9.22959 12.0794 9.30927 12.0106 9.37592C11.9436 9.443 11.8641 9.49622 11.7765 9.53256C11.689 9.5689 11.5951 9.58764 11.5003 9.5877C11.3089 9.58784 11.1252 9.51192 10.9898 9.37664C10.8543 9.24137 10.7781 9.05782 10.778 8.86637C10.7779 8.67493 10.8538 8.49127 10.989 8.3558L10.989 8.35724ZM13.0293 14.478C13.0963 14.4109 13.1758 14.3577 13.2634 14.3213C13.3509 14.285 13.4448 14.2662 13.5396 14.2662C13.6344 14.2661 13.7282 14.2847 13.8158 14.3209C13.9034 14.3571 13.9831 14.4103 14.0501 14.4772C14.1172 14.5442 14.1704 14.6238 14.2068 14.7113C14.2431 14.7989 14.2618 14.8927 14.2619 14.9875C14.262 15.0823 14.2434 15.1762 14.2072 15.2638C14.1709 15.3514 14.1178 15.431 14.0509 15.4981C13.9148 15.6295 13.7325 15.7022 13.5434 15.7006C13.3542 15.6989 13.1733 15.6231 13.0395 15.4893C12.9058 15.3555 12.8299 15.1746 12.8282 14.9854C12.8266 14.7963 12.8993 14.614 13.0307 14.478L13.0293 14.478ZM10.989 12.4363C11.0561 12.3692 11.1358 12.316 11.2234 12.2797C11.311 12.2434 11.405 12.2247 11.4998 12.2247C11.5947 12.2247 11.6886 12.2434 11.7763 12.2797C11.8639 12.316 11.9435 12.3692 12.0106 12.4363C12.0777 12.5034 12.1309 12.583 12.1672 12.6706C12.2035 12.7583 12.2222 12.8522 12.2222 12.9471C12.2222 13.0419 12.2035 13.1359 12.1672 13.2235C12.1309 13.3111 12.0777 13.3908 12.0106 13.4578C11.9436 13.5249 11.8641 13.5781 11.7765 13.6145C11.689 13.6508 11.5951 13.6696 11.5003 13.6696C11.3089 13.6698 11.1252 13.5938 10.9898 13.4586C10.8543 13.3233 10.7781 13.1397 10.778 12.9483C10.7779 12.7568 10.8538 12.5732 10.989 12.4377L10.989 12.4363ZM8.94881 10.3975C9.01536 10.3286 9.09497 10.2736 9.18299 10.2358C9.27101 10.198 9.36567 10.1781 9.46147 10.1773C9.55726 10.1764 9.65226 10.1947 9.74092 10.231C9.82958 10.2672 9.91013 10.3208 9.97787 10.3885C10.0456 10.4563 10.0992 10.5368 10.1355 10.6255C10.1717 10.7142 10.19 10.8092 10.1892 10.9049C10.1883 11.0007 10.1684 11.0954 10.1306 11.1834C10.0928 11.2714 10.0378 11.3511 9.96893 11.4176C9.83286 11.549 9.65063 11.6217 9.46147 11.6201C9.27231 11.6184 9.09136 11.5426 8.9576 11.4088C8.82384 11.2751 8.74796 11.0941 8.74632 10.9049C8.74468 10.7158 8.81739 10.5335 8.94881 10.3975Z" fill="white"/>
<path d="M33.112 24V13.248V7.2H36.792V12.224H37.4C37.6987 10.9867 38.0933 9.97333 38.584 9.184C39.0747 8.37333 39.6613 7.76533 40.344 7.36C41.048 6.95467 41.8693 6.752 42.808 6.752C43.8107 6.752 44.6427 6.976 45.304 7.424C45.9653 7.872 46.4773 8.50133 46.84 9.312C47.2027 10.1013 47.4373 11.072 47.544 12.224H48.056C48.376 10.9653 48.8027 9.93067 49.336 9.12C49.8907 8.30933 50.5413 7.712 51.288 7.328C52.056 6.944 52.8987 6.752 53.816 6.752C54.7333 6.752 55.5333 6.93333 56.216 7.296C56.92 7.65867 57.5067 8.20267 57.976 8.928C58.4453 9.632 58.7973 10.528 59.032 11.616C59.2667 12.6827 59.384 13.92 59.384 15.328V24H54.776V15.904C54.776 14.752 54.68 13.792 54.488 13.024C54.296 12.2347 53.9973 11.648 53.592 11.264C53.1867 10.88 52.664 10.688 52.024 10.688C51.32 10.688 50.712 10.9333 50.2 11.424C49.688 11.8933 49.2827 12.544 48.984 13.376C48.6853 14.208 48.5253 15.1573 48.504 16.224V24H43.992V16.032C43.992 14.8373 43.8853 13.856 43.672 13.088C43.4587 12.2987 43.1493 11.7013 42.744 11.296C42.3387 10.8907 41.8267 10.688 41.208 10.688C40.4827 10.688 39.864 10.9333 39.352 11.424C38.84 11.8933 38.4453 12.5547 38.168 13.408C37.8907 14.2613 37.7413 15.2107 37.72 16.256V24H33.112ZM70.2413 24.448C68.8546 24.448 67.6173 24.256 66.5293 23.872C65.4626 23.488 64.5559 22.9333 63.8093 22.208C63.0626 21.4827 62.4866 20.5867 62.0813 19.52C61.6973 18.4533 61.5053 17.248 61.5053 15.904C61.5053 14.5813 61.6866 13.3653 62.0493 12.256C62.4333 11.1253 62.9879 10.1547 63.7133 9.344C64.4386 8.512 65.3239 7.872 66.3693 7.424C67.4146 6.976 68.5986 6.752 69.9213 6.752C71.2013 6.752 72.3426 6.96533 73.3453 7.392C74.3479 7.79733 75.1799 8.416 75.8413 9.248C76.5239 10.08 77.0146 11.104 77.3133 12.32C77.6333 13.5147 77.7506 14.8907 77.6653 16.448L64.4813 16.576V14.048L75.0093 13.952L73.3773 15.232C73.5266 14.1013 73.4519 13.1733 73.1533 12.448C72.8546 11.7227 72.4173 11.1893 71.8413 10.848C71.2866 10.5067 70.6679 10.336 69.9853 10.336C69.1746 10.336 68.4599 10.5493 67.8413 10.976C67.2226 11.4027 66.7426 12.032 66.4013 12.864C66.0599 13.6747 65.8893 14.656 65.8893 15.808C65.8893 17.6213 66.2839 18.9547 67.0733 19.808C67.8839 20.6613 68.9399 21.088 70.2413 21.088C70.8386 21.088 71.3399 21.0133 71.7453 20.864C72.1719 20.6933 72.5133 20.48 72.7693 20.224C73.0466 19.968 73.2599 19.68 73.4093 19.36C73.5799 19.04 73.7186 18.72 73.8253 18.4L77.8253 19.264C77.6333 20.0533 77.3453 20.768 76.9613 21.408C76.5986 22.0267 76.1079 22.5707 75.4893 23.04C74.8706 23.488 74.1239 23.8293 73.2493 24.064C72.3959 24.32 71.3933 24.448 70.2413 24.448ZM86.3978 24.448C84.9898 24.448 83.7524 24.0853 82.6858 23.36C81.6404 22.6347 80.8298 21.6107 80.2538 20.288C79.6778 18.9653 79.3898 17.3973 79.3898 15.584C79.3898 13.8773 79.6458 12.3627 80.1578 11.04C80.6698 9.71733 81.4271 8.68267 82.4298 7.936C83.4324 7.18933 84.6804 6.816 86.1738 6.816C87.2618 6.816 88.1791 7.01867 88.9258 7.424C89.6724 7.82933 90.2804 8.42667 90.7498 9.216C91.2404 9.984 91.6244 10.912 91.9018 12H92.6378C92.4884 11.3173 92.3498 10.656 92.2218 10.016C92.1151 9.35467 92.0298 8.72533 91.9658 8.128C91.9018 7.53067 91.8698 7.008 91.8698 6.56V1.12H96.4778V15.744V24H92.6378V19.136H91.9978C91.7631 20.3307 91.4004 21.3227 90.9098 22.112C90.4191 22.9013 89.7898 23.488 89.0218 23.872C88.2751 24.256 87.4004 24.448 86.3978 24.448ZM87.9338 20.672C88.6378 20.672 89.2351 20.5227 89.7258 20.224C90.2164 19.9253 90.6218 19.5413 90.9418 19.072C91.2618 18.5813 91.4964 18.0587 91.6458 17.504C91.7951 16.928 91.8698 16.3947 91.8698 15.904V15.296C91.8698 14.8907 91.8058 14.4747 91.6778 14.048C91.5711 13.6 91.4111 13.1627 91.1978 12.736C90.9844 12.3093 90.7178 11.936 90.3978 11.616C90.0778 11.2747 89.7044 11.008 89.2778 10.816C88.8511 10.624 88.3818 10.528 87.8698 10.528C87.1018 10.528 86.4511 10.7413 85.9178 11.168C85.3844 11.5947 84.9684 12.192 84.6698 12.96C84.3711 13.7067 84.2218 14.5813 84.2218 15.584C84.2218 16.608 84.3711 17.504 84.6698 18.272C84.9898 19.04 85.4271 19.6373 85.9818 20.064C86.5364 20.4693 87.1871 20.672 87.9338 20.672ZM99.7633 24V7.2H104.371V24H99.7633ZM102.099 4.672C101.203 4.672 100.51 4.49067 100.019 4.128C99.5499 3.744 99.3153 3.18933 99.3153 2.464C99.3153 1.71733 99.5499 1.152 100.019 0.768C100.51 0.384 101.203 0.191999 102.099 0.191999C103.017 0.191999 103.71 0.384 104.179 0.768C104.67 1.152 104.915 1.71733 104.915 2.464C104.915 3.168 104.67 3.712 104.179 4.096C103.71 4.48 103.017 4.672 102.099 4.672ZM119.262 29.376V24.672C119.262 24.1387 119.294 23.5947 119.358 23.04C119.422 22.464 119.508 21.8773 119.614 21.28C119.742 20.6827 119.87 20.0853 119.998 19.488H119.358C119.06 20.512 118.665 21.3973 118.174 22.144C117.684 22.8907 117.065 23.4667 116.318 23.872C115.572 24.256 114.654 24.448 113.566 24.448C112.073 24.448 110.825 24.064 109.822 23.296C108.82 22.528 108.062 21.4933 107.55 20.192C107.038 18.8693 106.782 17.376 106.782 15.712C106.782 13.8773 107.06 12.2987 107.614 10.976C108.19 9.632 109.012 8.59733 110.078 7.872C111.145 7.12533 112.414 6.752 113.886 6.752C114.91 6.752 115.806 6.944 116.574 7.328C117.342 7.712 117.972 8.27733 118.462 9.024C118.953 9.77067 119.284 10.72 119.454 11.872H120.094L120.03 7.232H123.87V15.584V29.376H119.262ZM115.262 20.768C115.774 20.768 116.233 20.672 116.638 20.48C117.065 20.2667 117.438 20 117.758 19.68C118.078 19.3387 118.345 18.9653 118.558 18.56C118.793 18.1547 118.964 17.728 119.07 17.28C119.198 16.832 119.262 16.4053 119.262 16V15.392C119.262 14.88 119.177 14.336 119.006 13.76C118.857 13.184 118.622 12.6613 118.302 12.192C118.004 11.7013 117.609 11.3067 117.118 11.008C116.628 10.688 116.03 10.528 115.326 10.528C114.58 10.528 113.929 10.7413 113.374 11.168C112.82 11.5947 112.382 12.192 112.062 12.96C111.764 13.728 111.614 14.6453 111.614 15.712C111.614 16.6933 111.764 17.568 112.062 18.336C112.361 19.0827 112.777 19.68 113.31 20.128C113.844 20.5547 114.494 20.768 115.262 20.768ZM126.004 17.568V13.408H135.348V17.568H126.004ZM137.446 24V7.2H142.054V24H137.446ZM139.782 4.672C138.886 4.672 138.192 4.49067 137.702 4.128C137.232 3.744 136.998 3.18933 136.998 2.464C136.998 1.71733 137.232 1.152 137.702 0.768C138.192 0.384 138.886 0.191999 139.782 0.191999C140.699 0.191999 141.392 0.384 141.862 0.768C142.352 1.152 142.598 1.71733 142.598 2.464C142.598 3.168 142.352 3.712 141.862 4.096C141.392 4.48 140.699 4.672 139.782 4.672Z" fill="white"/>
</svg>
