<svg width="60" height="60" viewBox="0 0 60 60" fill="none" xmlns="http://www.w3.org/2000/svg">
<path d="M53.7459 6.25225L53.7457 6.25204C51.4406 3.94762 48.3146 2.65307 45.0552 2.65307C41.7957 2.65307 38.6697 3.94762 36.3646 6.25204L36.3642 6.25246L32.0506 10.5698L31.344 11.277L32.051 11.9838L48.0896 28.0186L48.8085 28.7374L49.5154 28.0067L53.7519 23.6274C56.0526 21.3229 57.3449 18.1994 57.3449 14.9428C57.3449 11.6834 56.0503 8.55737 53.7459 6.25225ZM46.8651 30.7061L47.5723 29.999L46.8651 29.2919L30.8077 13.2345L30.1 12.5267L29.3928 13.2351L13.2489 29.4092L12.5431 30.1163L13.2495 30.8228L29.2919 46.8651L29.999 47.5723L30.7061 46.8651L46.8651 30.7061ZM11.9988 32.066L11.2941 31.3613L10.587 32.0635L6.25462 36.3658L6.24207 36.3783L6.22996 36.3912C4.04566 38.7194 2.85285 41.8061 2.90394 44.9982C2.95502 48.1903 4.24598 51.2373 6.50367 53.4944C8.76136 55.7516 11.8086 57.0418 15.0007 57.0921C18.1928 57.1425 21.2792 55.9489 23.607 53.7641L23.6185 53.7533L23.6297 53.7421L23.6462 53.7256L28.0064 49.512L27.3152 48.7967L27.3152 48.7966L28.0223 48.0895L28.0186 48.0858L27.3234 47.3906L11.9988 32.066ZM54.9958 24.8775L54.992 24.8815L49.4385 30.6304L30.6078 49.4612L24.8813 54.9959L24.8775 54.9996C22.23 57.5853 18.6696 59.0227 14.969 58.9997C11.2683 58.9768 7.726 57.4953 5.11081 54.8769C2.49563 52.2585 1.01856 48.7143 1.00017 45.0136C0.981787 41.313 2.42356 37.7543 5.0126 35.1101L5.12233 34.998L5.12268 34.9973L10.6708 29.4971L10.7876 29.3813L10.7926 29.3714L35.1103 5.00866C37.7542 2.4221 41.3111 0.981797 45.0099 1.00017C48.7106 1.01856 52.2547 2.49563 54.8731 5.11081C57.4915 7.726 58.973 11.2683 58.996 14.969C59.0189 18.6696 57.5816 22.23 54.9958 24.8775Z" fill="#FAFAFA" stroke="#FCFCFC" stroke-width="2"/>
<mask id="path-2-inside-1_3245_8077" fill="white">
<path d="M20.8146 28.6667C20.9946 28.84 21.1382 29.0475 21.2372 29.277C21.3361 29.5065 21.3884 29.7533 21.3909 30.0032C21.3934 30.2531 21.3461 30.501 21.2518 30.7324C21.1575 30.9638 21.0181 31.1741 20.8416 31.3511C20.6652 31.528 20.4553 31.6681 20.2241 31.763C19.993 31.858 19.7452 31.906 19.4953 31.9041C19.2454 31.9023 18.9984 31.8508 18.7687 31.7525C18.5389 31.6542 18.331 31.5111 18.1572 31.3316C17.9822 31.1569 17.8433 30.9494 17.7485 30.721C17.6537 30.4926 17.6049 30.2478 17.6047 30.0005C17.6043 29.5011 17.8024 29.022 18.1553 28.6686C18.5082 28.3152 18.987 28.1164 19.4864 28.1161C19.9859 28.1157 20.465 28.3138 20.8184 28.6667H20.8146ZM26.1407 23.3443C26.3205 23.5179 26.4638 23.7256 26.5625 23.9552C26.6611 24.1848 26.713 24.4318 26.7152 24.6817C26.7174 24.9316 26.6698 25.1794 26.5751 25.4107C26.4805 25.642 26.3407 25.8521 26.164 26.0288C25.9873 26.2055 25.7772 26.3453 25.5459 26.4399C25.3146 26.5345 25.0668 26.5822 24.8169 26.58C24.567 26.5778 24.32 26.5259 24.0904 26.4273C23.8608 26.3286 23.6531 26.1853 23.4795 26.0055C23.1367 25.6505 22.947 25.1751 22.9513 24.6817C22.9556 24.1882 23.1535 23.7162 23.5025 23.3672C23.8514 23.0183 24.3234 22.8204 24.8169 22.8161C25.3104 22.8118 25.7858 23.0015 26.1407 23.3443ZM31.4668 18.022C31.6416 18.1969 31.7801 18.4046 31.8746 18.6332C31.9691 18.8617 32.0176 19.1066 32.0174 19.3539C32.0173 19.6012 31.9684 19.846 31.8736 20.0744C31.7788 20.3028 31.6399 20.5103 31.465 20.685C31.29 20.8598 31.0823 20.9983 30.8538 21.0928C30.6252 21.1873 30.3803 21.2358 30.133 21.2356C29.8857 21.2354 29.6409 21.1866 29.4125 21.0918C29.1841 20.997 28.9766 20.8581 28.8019 20.6831C28.4591 20.3282 28.2694 19.8528 28.2737 19.3593C28.2779 18.8659 28.4759 18.3938 28.8248 18.0449C29.1738 17.6959 29.6458 17.498 30.1393 17.4937C30.6327 17.4894 31.1081 17.6791 31.4631 18.022H31.4668ZM31.4668 39.3152C31.6416 39.4902 31.7801 39.6978 31.8746 39.9264C31.9691 40.1549 32.0176 40.3998 32.0174 40.6471C32.0173 40.8944 31.9684 41.1392 31.8736 41.3676C31.7788 41.596 31.6399 41.8035 31.465 41.9782C31.29 42.153 31.0823 42.2915 30.8538 42.386C30.6252 42.4805 30.3803 42.529 30.133 42.5288C29.8857 42.5287 29.6409 42.4798 29.4125 42.385C29.1841 42.2902 28.9766 42.1513 28.8019 41.9764C28.4591 41.6214 28.2694 41.146 28.2737 40.6525C28.2779 40.1591 28.4759 39.687 28.8248 39.3381C29.1738 38.9892 29.6458 38.7912 30.1393 38.7869C30.6327 38.7827 31.1081 38.9723 31.4631 39.3152H31.4668ZM36.7854 33.989C37.1388 34.3419 37.3376 34.8208 37.3379 35.3202C37.3383 35.8196 37.1402 36.2987 36.7873 36.6521C36.4344 37.0055 35.9556 37.2042 35.4562 37.2046C34.9568 37.2049 34.4776 37.0069 34.1243 36.654C33.7814 36.299 33.5917 35.8236 33.596 35.3302C33.6003 34.8367 33.7982 34.3647 34.1472 34.0157C34.4961 33.6668 34.9682 33.4689 35.4616 33.4646C35.9551 33.4603 36.4305 33.65 36.7854 33.9928V33.989ZM42.1078 28.6667C42.2878 28.84 42.4314 29.0475 42.5304 29.277C42.6293 29.5065 42.6816 29.7533 42.6841 30.0032C42.6866 30.2531 42.6393 30.501 42.545 30.7324C42.4507 30.9638 42.3113 31.1741 42.1348 31.3511C41.9584 31.528 41.7485 31.6681 41.5173 31.763C41.2862 31.858 41.0384 31.906 40.7885 31.9041C40.5387 31.9023 40.2916 31.8508 40.0619 31.7525C39.8321 31.6542 39.6243 31.5111 39.4504 31.3316C39.2754 31.1569 39.1365 30.9494 39.0418 30.721C38.947 30.4926 38.8981 30.2478 38.8979 30.0005C38.8975 29.5011 39.0956 29.022 39.4485 28.6686C39.8014 28.3152 40.2802 28.1164 40.7796 28.1161C41.2791 28.1157 41.7582 28.3138 42.1116 28.6667H42.1078ZM26.1407 33.989C26.3157 34.1638 26.4545 34.3713 26.5493 34.5997C26.6441 34.8281 26.693 35.0729 26.6932 35.3202C26.6934 35.5675 26.6448 35.8124 26.5504 36.0409C26.4559 36.2694 26.3173 36.4771 26.1426 36.6521C25.9679 36.8271 25.7604 36.9659 25.532 37.0607C25.3036 37.1555 25.0587 37.2044 24.8115 37.2046C24.5642 37.2048 24.3193 37.1562 24.0907 37.0618C23.8622 36.9673 23.6545 36.8287 23.4795 36.654C23.1367 36.299 22.947 35.8236 22.9513 35.3302C22.9556 34.8367 23.1535 34.3647 23.5025 34.0157C23.8514 33.6668 24.3234 33.4689 24.8169 33.4646C25.3104 33.4603 25.7858 33.65 26.1407 33.9928V33.989ZM31.4668 28.6667C31.6418 28.8417 31.7806 29.0494 31.8753 29.278C31.97 29.5067 32.0188 29.7517 32.0188 29.9992C32.0188 30.2466 31.97 30.4917 31.8753 30.7203C31.7806 30.9489 31.6418 31.1566 31.4668 31.3316C31.2919 31.5066 31.0841 31.6454 30.8555 31.7401C30.6269 31.8348 30.3818 31.8836 30.1344 31.8836C29.8869 31.8836 29.6419 31.8348 29.4132 31.7401C29.1846 31.6454 28.9769 31.5066 28.8019 31.3316C28.6269 31.1569 28.4881 30.9494 28.3933 30.721C28.2985 30.4926 28.2496 30.2478 28.2494 30.0005C28.2491 29.5011 28.4471 29.022 28.8 28.6686C29.1529 28.3152 29.6317 28.1164 30.1312 28.1161C30.6306 28.1157 31.1097 28.3138 31.4631 28.6667H31.4668ZM36.7854 23.3443C36.9652 23.5179 37.1086 23.7256 37.2072 23.9552C37.3058 24.1848 37.3578 24.4318 37.3599 24.6817C37.3621 24.9316 37.3145 25.1794 37.2199 25.4107C37.1252 25.642 36.9855 25.8521 36.8088 26.0288C36.6321 26.2055 36.4219 26.3453 36.1906 26.4399C35.9593 26.5345 35.7115 26.5822 35.4616 26.58C35.2117 26.5778 34.9648 26.5259 34.7352 26.4273C34.5055 26.3286 34.2979 26.1853 34.1243 26.0055C33.7814 25.6505 33.5917 25.1751 33.596 24.6817C33.6003 24.1882 33.7982 23.7162 34.1472 23.3672C34.4961 23.0183 34.9682 22.8204 35.4616 22.8161C35.9551 22.8118 36.4305 23.0015 36.7854 23.3443Z"/>
</mask>
<path d="M20.8146 28.6667C20.9946 28.84 21.1382 29.0475 21.2372 29.277C21.3361 29.5065 21.3884 29.7533 21.3909 30.0032C21.3934 30.2531 21.3461 30.501 21.2518 30.7324C21.1575 30.9638 21.0181 31.1741 20.8416 31.3511C20.6652 31.528 20.4553 31.6681 20.2241 31.763C19.993 31.858 19.7452 31.906 19.4953 31.9041C19.2454 31.9023 18.9984 31.8508 18.7687 31.7525C18.5389 31.6542 18.331 31.5111 18.1572 31.3316C17.9822 31.1569 17.8433 30.9494 17.7485 30.721C17.6537 30.4926 17.6049 30.2478 17.6047 30.0005C17.6043 29.5011 17.8024 29.022 18.1553 28.6686C18.5082 28.3152 18.987 28.1164 19.4864 28.1161C19.9859 28.1157 20.465 28.3138 20.8184 28.6667H20.8146ZM26.1407 23.3443C26.3205 23.5179 26.4638 23.7256 26.5625 23.9552C26.6611 24.1848 26.713 24.4318 26.7152 24.6817C26.7174 24.9316 26.6698 25.1794 26.5751 25.4107C26.4805 25.642 26.3407 25.8521 26.164 26.0288C25.9873 26.2055 25.7772 26.3453 25.5459 26.4399C25.3146 26.5345 25.0668 26.5822 24.8169 26.58C24.567 26.5778 24.32 26.5259 24.0904 26.4273C23.8608 26.3286 23.6531 26.1853 23.4795 26.0055C23.1367 25.6505 22.947 25.1751 22.9513 24.6817C22.9556 24.1882 23.1535 23.7162 23.5025 23.3672C23.8514 23.0183 24.3234 22.8204 24.8169 22.8161C25.3104 22.8118 25.7858 23.0015 26.1407 23.3443ZM31.4668 18.022C31.6416 18.1969 31.7801 18.4046 31.8746 18.6332C31.9691 18.8617 32.0176 19.1066 32.0174 19.3539C32.0173 19.6012 31.9684 19.846 31.8736 20.0744C31.7788 20.3028 31.6399 20.5103 31.465 20.685C31.29 20.8598 31.0823 20.9983 30.8538 21.0928C30.6252 21.1873 30.3803 21.2358 30.133 21.2356C29.8857 21.2354 29.6409 21.1866 29.4125 21.0918C29.1841 20.997 28.9766 20.8581 28.8019 20.6831C28.4591 20.3282 28.2694 19.8528 28.2737 19.3593C28.2779 18.8659 28.4759 18.3938 28.8248 18.0449C29.1738 17.6959 29.6458 17.498 30.1393 17.4937C30.6327 17.4894 31.1081 17.6791 31.4631 18.022H31.4668ZM31.4668 39.3152C31.6416 39.4902 31.7801 39.6978 31.8746 39.9264C31.9691 40.1549 32.0176 40.3998 32.0174 40.6471C32.0173 40.8944 31.9684 41.1392 31.8736 41.3676C31.7788 41.596 31.6399 41.8035 31.465 41.9782C31.29 42.153 31.0823 42.2915 30.8538 42.386C30.6252 42.4805 30.3803 42.529 30.133 42.5288C29.8857 42.5287 29.6409 42.4798 29.4125 42.385C29.1841 42.2902 28.9766 42.1513 28.8019 41.9764C28.4591 41.6214 28.2694 41.146 28.2737 40.6525C28.2779 40.1591 28.4759 39.687 28.8248 39.3381C29.1738 38.9892 29.6458 38.7912 30.1393 38.7869C30.6327 38.7827 31.1081 38.9723 31.4631 39.3152H31.4668ZM36.7854 33.989C37.1388 34.3419 37.3376 34.8208 37.3379 35.3202C37.3383 35.8196 37.1402 36.2987 36.7873 36.6521C36.4344 37.0055 35.9556 37.2042 35.4562 37.2046C34.9568 37.2049 34.4776 37.0069 34.1243 36.654C33.7814 36.299 33.5917 35.8236 33.596 35.3302C33.6003 34.8367 33.7982 34.3647 34.1472 34.0157C34.4961 33.6668 34.9682 33.4689 35.4616 33.4646C35.9551 33.4603 36.4305 33.65 36.7854 33.9928V33.989ZM42.1078 28.6667C42.2878 28.84 42.4314 29.0475 42.5304 29.277C42.6293 29.5065 42.6816 29.7533 42.6841 30.0032C42.6866 30.2531 42.6393 30.501 42.545 30.7324C42.4507 30.9638 42.3113 31.1741 42.1348 31.3511C41.9584 31.528 41.7485 31.6681 41.5173 31.763C41.2862 31.858 41.0384 31.906 40.7885 31.9041C40.5387 31.9023 40.2916 31.8508 40.0619 31.7525C39.8321 31.6542 39.6243 31.5111 39.4504 31.3316C39.2754 31.1569 39.1365 30.9494 39.0418 30.721C38.947 30.4926 38.8981 30.2478 38.8979 30.0005C38.8975 29.5011 39.0956 29.022 39.4485 28.6686C39.8014 28.3152 40.2802 28.1164 40.7796 28.1161C41.2791 28.1157 41.7582 28.3138 42.1116 28.6667H42.1078ZM26.1407 33.989C26.3157 34.1638 26.4545 34.3713 26.5493 34.5997C26.6441 34.8281 26.693 35.0729 26.6932 35.3202C26.6934 35.5675 26.6448 35.8124 26.5504 36.0409C26.4559 36.2694 26.3173 36.4771 26.1426 36.6521C25.9679 36.8271 25.7604 36.9659 25.532 37.0607C25.3036 37.1555 25.0587 37.2044 24.8115 37.2046C24.5642 37.2048 24.3193 37.1562 24.0907 37.0618C23.8622 36.9673 23.6545 36.8287 23.4795 36.654C23.1367 36.299 22.947 35.8236 22.9513 35.3302C22.9556 34.8367 23.1535 34.3647 23.5025 34.0157C23.8514 33.6668 24.3234 33.4689 24.8169 33.4646C25.3104 33.4603 25.7858 33.65 26.1407 33.9928V33.989ZM31.4668 28.6667C31.6418 28.8417 31.7806 29.0494 31.8753 29.278C31.97 29.5067 32.0188 29.7517 32.0188 29.9992C32.0188 30.2466 31.97 30.4917 31.8753 30.7203C31.7806 30.9489 31.6418 31.1566 31.4668 31.3316C31.2919 31.5066 31.0841 31.6454 30.8555 31.7401C30.6269 31.8348 30.3818 31.8836 30.1344 31.8836C29.8869 31.8836 29.6419 31.8348 29.4132 31.7401C29.1846 31.6454 28.9769 31.5066 28.8019 31.3316C28.6269 31.1569 28.4881 30.9494 28.3933 30.721C28.2985 30.4926 28.2496 30.2478 28.2494 30.0005C28.2491 29.5011 28.4471 29.022 28.8 28.6686C29.1529 28.3152 29.6317 28.1164 30.1312 28.1161C30.6306 28.1157 31.1097 28.3138 31.4631 28.6667H31.4668ZM36.7854 23.3443C36.9652 23.5179 37.1086 23.7256 37.2072 23.9552C37.3058 24.1848 37.3578 24.4318 37.3599 24.6817C37.3621 24.9316 37.3145 25.1794 37.2199 25.4107C37.1252 25.642 36.9855 25.8521 36.8088 26.0288C36.6321 26.2055 36.4219 26.3453 36.1906 26.4399C35.9593 26.5345 35.7115 26.5822 35.4616 26.58C35.2117 26.5778 34.9648 26.5259 34.7352 26.4273C34.5055 26.3286 34.2979 26.1853 34.1243 26.0055C33.7814 25.6505 33.5917 25.1751 33.596 24.6817C33.6003 24.1882 33.7982 23.7162 34.1472 23.3672C34.4961 23.0183 34.9682 22.8204 35.4616 22.8161C35.9551 22.8118 36.4305 23.0015 36.7854 23.3443Z" fill="#FAFAFA" stroke="#FCFCFC" stroke-width="2" mask="url(#path-2-inside-1_3245_8077)"/>
<path d="M6.60575 6.60377L6.60564 6.60388C4.39496 8.81524 3.15307 11.8141 3.15307 14.9409C3.15307 18.0678 4.39496 21.0666 6.60565 23.278L6.60585 23.2782L10.9232 27.5918L11.2768 27.9451L11.6302 27.5916L27.665 11.553L28.0244 11.1935L27.6591 10.8401L23.2768 6.60078C21.0658 4.39197 18.0682 3.1512 14.9428 3.1512C11.8159 3.1512 8.8171 4.39309 6.60575 6.60377ZM30.3525 13.4845L29.999 13.131L29.6454 13.4845L13.588 29.5419L13.2341 29.8958L13.5883 30.2494L29.7624 46.3934L30.116 46.7463L30.4692 46.393L46.5116 30.3507L46.8651 29.9971L46.5116 29.6436L30.3525 13.4845ZM32.4195 48.3509L32.0672 48.7032L32.4183 49.0567L36.7206 53.3892L36.7268 53.3954L36.7333 53.4015C38.9668 55.4969 41.928 56.6412 44.9902 56.5922C48.0524 56.5432 50.9755 55.3048 53.1408 53.1389C55.3062 50.9731 56.5439 48.0497 56.5922 44.9875C56.6405 41.9253 55.4955 38.9644 53.3995 36.7313L53.3941 36.7256L53.3885 36.72L53.369 36.7004L49.1524 32.3372L48.7967 32.6809L48.7966 32.6809L48.4431 32.3273L48.4393 32.3311L48.0918 32.6786L32.4195 48.3509ZM25.2269 4.64262L25.2288 4.64453L30.9809 10.201L49.8178 29.0378L55.3554 34.7674L55.3573 34.7692C58.035 37.5109 59.5235 41.1979 59.4997 45.0302C59.4759 48.8625 57.9418 52.5308 55.2302 55.239C52.5187 57.9473 48.8484 59.4769 45.0161 59.4959C41.1838 59.515 37.4986 58.0219 34.7602 55.3408L34.7042 55.2859L34.7001 55.2838L29.142 49.6773L29.0842 49.619L29.0754 49.6146L4.65534 25.2396C4.65467 25.2389 4.65401 25.2383 4.65335 25.2376C1.97346 22.4994 0.481142 18.8151 0.500178 14.9837C0.519218 11.1514 2.04882 7.48121 4.75704 4.76965C7.46525 2.05807 11.1336 0.523929 14.9659 0.500144C18.7981 0.476363 22.4852 1.96486 25.2269 4.64262Z" fill="#FAFAFA" stroke="#FCFCFC"/>
<mask id="path-4-inside-2_3245_8077" fill="white">
<path d="M28.6668 39.1815C28.8401 39.0015 29.0476 38.8578 29.2771 38.7589C29.5065 38.6599 29.7534 38.6077 30.0033 38.6052C30.2532 38.6026 30.5011 38.6499 30.7325 38.7442C30.9639 38.8385 31.1742 38.978 31.3512 39.1544C31.5281 39.3309 31.6682 39.5408 31.7631 39.7719C31.8581 40.0031 31.9061 40.2508 31.9042 40.5007C31.9024 40.7506 31.8509 40.9976 31.7526 41.2274C31.6543 41.4571 31.5112 41.665 31.3317 41.8389C31.157 42.0139 30.9495 42.1527 30.7211 42.2475C30.4927 42.3423 30.2479 42.3912 30.0006 42.3914C29.5012 42.3917 29.0221 42.1937 28.6687 41.8408C28.3153 41.4879 28.1165 41.009 28.1162 40.5096C28.1158 40.0102 28.3139 39.5311 28.6668 39.1777L28.6668 39.1815ZM23.3444 33.8553C23.518 33.6756 23.7257 33.5322 23.9553 33.4336C24.1849 33.3349 24.4319 33.283 24.6818 33.2808C24.9317 33.2787 25.1795 33.3263 25.4108 33.4209C25.6421 33.5156 25.8522 33.6553 26.0289 33.832C26.2056 34.0087 26.3454 34.2188 26.44 34.4501C26.5346 34.6814 26.5823 34.9293 26.5801 35.1792C26.5779 35.429 26.526 35.676 26.4274 35.9056C26.3287 36.1352 26.1853 36.3429 26.0056 36.5165C25.6506 36.8593 25.1752 37.049 24.6818 37.0447C24.1883 37.0405 23.7163 36.8425 23.3673 36.4936C23.0184 36.1446 22.8205 35.6726 22.8162 35.1792C22.8119 34.6857 23.0016 34.2103 23.3444 33.8553ZM18.022 28.5292C18.197 28.3545 18.4047 28.2159 18.6333 28.1214C18.8618 28.027 19.1067 27.9784 19.354 27.9786C19.6013 27.9788 19.8461 28.0277 20.0745 28.1225C20.3029 28.2173 20.5104 28.3561 20.6851 28.5311C20.8598 28.7061 20.9984 28.9138 21.0929 29.1423C21.1874 29.3708 21.2359 29.6157 21.2357 29.863C21.2355 30.1103 21.1867 30.3551 21.0919 30.5835C20.9971 30.8119 20.8582 31.0194 20.6832 31.1942C20.3283 31.537 19.8529 31.7267 19.3594 31.7224C18.866 31.7181 18.3939 31.5202 18.045 31.1712C17.696 30.8223 17.4981 30.3503 17.4938 29.8568C17.4895 29.3633 17.6792 28.8879 18.022 28.533L18.022 28.5292ZM39.3153 28.5292C39.4903 28.3545 39.6979 28.2159 39.9265 28.1214C40.155 28.027 40.3999 27.9784 40.6472 27.9786C40.8945 27.9788 41.1393 28.0277 41.3677 28.1225C41.5961 28.2173 41.8036 28.3561 41.9783 28.5311C42.1531 28.7061 42.2916 28.9138 42.3861 29.1423C42.4806 29.3708 42.5291 29.6157 42.5289 29.863C42.5288 30.1103 42.4799 30.3551 42.3851 30.5835C42.2903 30.8119 42.1514 31.0194 41.9764 31.1942C41.6215 31.537 41.1461 31.7267 40.6526 31.7224C40.1592 31.7181 39.6871 31.5202 39.3382 31.1712C38.9892 30.8223 38.7913 30.3502 38.787 29.8568C38.7827 29.3633 38.9724 28.8879 39.3153 28.533L39.3153 28.5292ZM33.9891 23.2106C34.342 22.8572 34.8209 22.6585 35.3203 22.6581C35.8197 22.6578 36.2988 22.8558 36.6522 23.2087C37.0056 23.5616 37.2043 24.0404 37.2047 24.5399C37.205 25.0393 37.007 25.5184 36.6541 25.8718C36.2991 26.2146 35.8237 26.4043 35.3303 26.4C34.8368 26.3957 34.3648 26.1978 34.0158 25.8489C33.6669 25.4999 33.469 25.0279 33.4647 24.5344C33.4604 24.041 33.6501 23.5656 33.9929 23.2106L33.9891 23.2106ZM28.6668 17.8882C28.8401 17.7083 29.0476 17.5646 29.2771 17.4657C29.5065 17.3667 29.7534 17.3145 30.0033 17.3119C30.2532 17.3094 30.5011 17.3567 30.7325 17.451C30.9639 17.5453 31.1742 17.6847 31.3512 17.8612C31.5281 18.0377 31.6682 18.2476 31.7631 18.4787C31.8581 18.7099 31.906 18.9576 31.9042 19.2075C31.9024 19.4574 31.8509 19.7044 31.7526 19.9342C31.6543 20.1639 31.5112 20.3718 31.3317 20.5457C31.157 20.7206 30.9495 20.8595 30.7211 20.9543C30.4927 21.0491 30.2479 21.098 30.0006 21.0981C29.5012 21.0985 29.0221 20.9004 28.6687 20.5475C28.3153 20.1947 28.1165 19.7158 28.1162 19.2164C28.1158 18.717 28.3139 18.2379 28.6668 17.8845L28.6668 17.8882ZM33.9891 33.8553C34.1639 33.6804 34.3714 33.5415 34.5998 33.4467C34.8282 33.3519 35.073 33.303 35.3203 33.3029C35.5676 33.3027 35.8125 33.3512 36.041 33.4457C36.2695 33.5402 36.4772 33.6787 36.6522 33.8535C36.8272 34.0282 36.966 34.2357 37.0608 34.4641C37.1556 34.6925 37.2045 34.9373 37.2047 35.1846C37.2049 35.4319 37.1563 35.6768 37.0619 35.9053C36.9674 36.1338 36.8288 36.3415 36.6541 36.5165C36.2991 36.8593 35.8237 37.049 35.3303 37.0447C34.8368 37.0405 34.3648 36.8425 34.0158 36.4936C33.6669 36.1446 33.469 35.6726 33.4647 35.1792C33.4604 34.6857 33.6501 34.2103 33.9929 33.8553L33.9891 33.8553ZM28.6668 28.5292C28.8418 28.3542 29.0495 28.2154 29.2781 28.1207C29.5067 28.026 29.7518 27.9773 29.9992 27.9773C30.2467 27.9773 30.4918 28.026 30.7204 28.1207C30.949 28.2154 31.1567 28.3542 31.3317 28.5292C31.5067 28.7042 31.6455 28.9119 31.7402 29.1405C31.8349 29.3692 31.8836 29.6142 31.8836 29.8617C31.8836 30.1091 31.8349 30.3542 31.7402 30.5828C31.6455 30.8114 31.5067 31.0192 31.3317 31.1942C31.157 31.3691 30.9495 31.508 30.7211 31.6028C30.4927 31.6976 30.2479 31.7465 30.0006 31.7466C29.5012 31.747 29.0221 31.5489 28.6687 31.196C28.3153 30.8431 28.1165 30.3643 28.1162 29.8649C28.1158 29.3655 28.3139 28.8864 28.6668 28.533L28.6668 28.5292ZM23.3444 23.2106C23.518 23.0309 23.7257 22.8875 23.9553 22.7888C24.1849 22.6902 24.4319 22.6383 24.6818 22.6361C24.9317 22.6339 25.1795 22.6816 25.4108 22.7762C25.6421 22.8708 25.8522 23.0106 26.0289 23.1873C26.2056 23.364 26.3454 23.5741 26.44 23.8054C26.5346 24.0367 26.5823 24.2845 26.5801 24.5344C26.5779 24.7843 26.526 25.0313 26.4274 25.2609C26.3287 25.4905 26.1853 25.6982 26.0056 25.8718C25.6506 26.2146 25.1752 26.4043 24.6818 26.4C24.1883 26.3957 23.7163 26.1978 23.3673 25.8489C23.0184 25.4999 22.8205 25.0279 22.8162 24.5344C22.8119 24.041 23.0016 23.5656 23.3444 23.2106Z"/>
</mask>
<path d="M28.6668 39.1815C28.8401 39.0015 29.0476 38.8578 29.2771 38.7589C29.5065 38.6599 29.7534 38.6077 30.0033 38.6052C30.2532 38.6026 30.5011 38.6499 30.7325 38.7442C30.9639 38.8385 31.1742 38.978 31.3512 39.1544C31.5281 39.3309 31.6682 39.5408 31.7631 39.7719C31.8581 40.0031 31.9061 40.2508 31.9042 40.5007C31.9024 40.7506 31.8509 40.9976 31.7526 41.2274C31.6543 41.4571 31.5112 41.665 31.3317 41.8389C31.157 42.0139 30.9495 42.1527 30.7211 42.2475C30.4927 42.3423 30.2479 42.3912 30.0006 42.3914C29.5012 42.3917 29.0221 42.1937 28.6687 41.8408C28.3153 41.4879 28.1165 41.009 28.1162 40.5096C28.1158 40.0102 28.3139 39.5311 28.6668 39.1777L28.6668 39.1815ZM23.3444 33.8553C23.518 33.6756 23.7257 33.5322 23.9553 33.4336C24.1849 33.3349 24.4319 33.283 24.6818 33.2808C24.9317 33.2787 25.1795 33.3263 25.4108 33.4209C25.6421 33.5156 25.8522 33.6553 26.0289 33.832C26.2056 34.0087 26.3454 34.2188 26.44 34.4501C26.5346 34.6814 26.5823 34.9293 26.5801 35.1792C26.5779 35.429 26.526 35.676 26.4274 35.9056C26.3287 36.1352 26.1853 36.3429 26.0056 36.5165C25.6506 36.8593 25.1752 37.049 24.6818 37.0447C24.1883 37.0405 23.7163 36.8425 23.3673 36.4936C23.0184 36.1446 22.8205 35.6726 22.8162 35.1792C22.8119 34.6857 23.0016 34.2103 23.3444 33.8553ZM18.022 28.5292C18.197 28.3545 18.4047 28.2159 18.6333 28.1214C18.8618 28.027 19.1067 27.9784 19.354 27.9786C19.6013 27.9788 19.8461 28.0277 20.0745 28.1225C20.3029 28.2173 20.5104 28.3561 20.6851 28.5311C20.8598 28.7061 20.9984 28.9138 21.0929 29.1423C21.1874 29.3708 21.2359 29.6157 21.2357 29.863C21.2355 30.1103 21.1867 30.3551 21.0919 30.5835C20.9971 30.8119 20.8582 31.0194 20.6832 31.1942C20.3283 31.537 19.8529 31.7267 19.3594 31.7224C18.866 31.7181 18.3939 31.5202 18.045 31.1712C17.696 30.8223 17.4981 30.3503 17.4938 29.8568C17.4895 29.3633 17.6792 28.8879 18.022 28.533L18.022 28.5292ZM39.3153 28.5292C39.4903 28.3545 39.6979 28.2159 39.9265 28.1214C40.155 28.027 40.3999 27.9784 40.6472 27.9786C40.8945 27.9788 41.1393 28.0277 41.3677 28.1225C41.5961 28.2173 41.8036 28.3561 41.9783 28.5311C42.1531 28.7061 42.2916 28.9138 42.3861 29.1423C42.4806 29.3708 42.5291 29.6157 42.5289 29.863C42.5288 30.1103 42.4799 30.3551 42.3851 30.5835C42.2903 30.8119 42.1514 31.0194 41.9764 31.1942C41.6215 31.537 41.1461 31.7267 40.6526 31.7224C40.1592 31.7181 39.6871 31.5202 39.3382 31.1712C38.9892 30.8223 38.7913 30.3502 38.787 29.8568C38.7827 29.3633 38.9724 28.8879 39.3153 28.533L39.3153 28.5292ZM33.9891 23.2106C34.342 22.8572 34.8209 22.6585 35.3203 22.6581C35.8197 22.6578 36.2988 22.8558 36.6522 23.2087C37.0056 23.5616 37.2043 24.0404 37.2047 24.5399C37.205 25.0393 37.007 25.5184 36.6541 25.8718C36.2991 26.2146 35.8237 26.4043 35.3303 26.4C34.8368 26.3957 34.3648 26.1978 34.0158 25.8489C33.6669 25.4999 33.469 25.0279 33.4647 24.5344C33.4604 24.041 33.6501 23.5656 33.9929 23.2106L33.9891 23.2106ZM28.6668 17.8882C28.8401 17.7083 29.0476 17.5646 29.2771 17.4657C29.5065 17.3667 29.7534 17.3145 30.0033 17.3119C30.2532 17.3094 30.5011 17.3567 30.7325 17.451C30.9639 17.5453 31.1742 17.6847 31.3512 17.8612C31.5281 18.0377 31.6682 18.2476 31.7631 18.4787C31.8581 18.7099 31.906 18.9576 31.9042 19.2075C31.9024 19.4574 31.8509 19.7044 31.7526 19.9342C31.6543 20.1639 31.5112 20.3718 31.3317 20.5457C31.157 20.7206 30.9495 20.8595 30.7211 20.9543C30.4927 21.0491 30.2479 21.098 30.0006 21.0981C29.5012 21.0985 29.0221 20.9004 28.6687 20.5475C28.3153 20.1947 28.1165 19.7158 28.1162 19.2164C28.1158 18.717 28.3139 18.2379 28.6668 17.8845L28.6668 17.8882ZM33.9891 33.8553C34.1639 33.6804 34.3714 33.5415 34.5998 33.4467C34.8282 33.3519 35.073 33.303 35.3203 33.3029C35.5676 33.3027 35.8125 33.3512 36.041 33.4457C36.2695 33.5402 36.4772 33.6787 36.6522 33.8535C36.8272 34.0282 36.966 34.2357 37.0608 34.4641C37.1556 34.6925 37.2045 34.9373 37.2047 35.1846C37.2049 35.4319 37.1563 35.6768 37.0619 35.9053C36.9674 36.1338 36.8288 36.3415 36.6541 36.5165C36.2991 36.8593 35.8237 37.049 35.3303 37.0447C34.8368 37.0405 34.3648 36.8425 34.0158 36.4936C33.6669 36.1446 33.469 35.6726 33.4647 35.1792C33.4604 34.6857 33.6501 34.2103 33.9929 33.8553L33.9891 33.8553ZM28.6668 28.5292C28.8418 28.3542 29.0495 28.2154 29.2781 28.1207C29.5067 28.026 29.7518 27.9773 29.9992 27.9773C30.2467 27.9773 30.4918 28.026 30.7204 28.1207C30.949 28.2154 31.1567 28.3542 31.3317 28.5292C31.5067 28.7042 31.6455 28.9119 31.7402 29.1405C31.8349 29.3692 31.8836 29.6142 31.8836 29.8617C31.8836 30.1091 31.8349 30.3542 31.7402 30.5828C31.6455 30.8114 31.5067 31.0192 31.3317 31.1942C31.157 31.3691 30.9495 31.508 30.7211 31.6028C30.4927 31.6976 30.2479 31.7465 30.0006 31.7466C29.5012 31.747 29.0221 31.5489 28.6687 31.196C28.3153 30.8431 28.1165 30.3643 28.1162 29.8649C28.1158 29.3655 28.3139 28.8864 28.6668 28.533L28.6668 28.5292ZM23.3444 23.2106C23.518 23.0309 23.7257 22.8875 23.9553 22.7888C24.1849 22.6902 24.4319 22.6383 24.6818 22.6361C24.9317 22.6339 25.1795 22.6816 25.4108 22.7762C25.6421 22.8708 25.8522 23.0106 26.0289 23.1873C26.2056 23.364 26.3454 23.5741 26.44 23.8054C26.5346 24.0367 26.5823 24.2845 26.5801 24.5344C26.5779 24.7843 26.526 25.0313 26.4274 25.2609C26.3287 25.4905 26.1853 25.6982 26.0056 25.8718C25.6506 26.2146 25.1752 26.4043 24.6818 26.4C24.1883 26.3957 23.7163 26.1978 23.3673 25.8489C23.0184 25.4999 22.8205 25.0279 22.8162 24.5344C22.8119 24.041 23.0016 23.5656 23.3444 23.2106Z" fill="#FAFAFA" stroke="#FCFCFC" stroke-width="2" mask="url(#path-4-inside-2_3245_8077)"/>
</svg>
